<svg xmlns="http://www.w3.org/2000/svg" width="27" height="30" viewBox="0 0 27 30">
  <g id="User" transform="translate(-0.003 0.001)">
    <path id="Path_11" data-name="Path 11" d="M12.727,211.882c-.477-.054-.955-.1-1.431-.163a14.842,14.842,0,0,1-5.051-1.6,15.8,15.8,0,0,1-6.057-5.606.954.954,0,0,1-.057-1.04,9.656,9.656,0,0,1,6.579-5.282c.238-.06.482-.093.722-.144a1.558,1.558,0,0,1,1.273.305,8.182,8.182,0,0,0,5.193,1.5,7.163,7.163,0,0,0,3.99-1.258,2.811,2.811,0,0,1,2.639-.348,9.894,9.894,0,0,1,6.027,4.618c.6.992.616,1.007-.025,1.966a15.585,15.585,0,0,1-6.186,5.46,15.306,15.306,0,0,1-5.94,1.552,1.452,1.452,0,0,0-.2.04H12.727Z" transform="translate(0 -181.883)"/>
    <path id="Path_12" data-name="Path 12" d="M76.691,15.594a7.884,7.884,0,0,1-7.871-7.811,7.876,7.876,0,0,1,15.751.01A7.882,7.882,0,0,1,76.691,15.594Z" transform="translate(-63.2 0)"/>
  </g>
</svg>
